

<!-- Generator: Adobe Illustrator 27.5.0, SVG Export Plug-In . SVG Version: 6.00 Build 0)  -->
<svg version="1.1" fill="currentColor" stroke="currentColor" stroke-width="25"  xmlns="http://www.w3.org/2000/svg" xmlns:xlink="http://www.w3.org/1999/xlink" x="0px" y="0px"
	 viewBox="0 0 2200 2200" style="enable-background:new 0 0 2200 2200;" xml:space="preserve">
<g id="Objects">
	<g>
		<path  d="M1174.348,533.14c-6.219-5.149-12.618-10.53-18.808-15.734c-28.478-23.944-57.925-48.704-89.813-68.319
			c-37.117-22.833-72.023-35.014-106.714-37.241c-41.253-2.647-112.939-5.335-192.036,0.209c3.396-4.978,6.682-10.027,9.829-15.158
			c13.085-21.35,22.256-41.687,28.037-62.176c15.434-54.719,2.867-127.022-51.019-159.342
			c-22.056-13.218-48.438-17.934-76.293-13.638c-25.817,3.983-50.734,15.648-70.162,32.848
			c-34.371,30.44-55.979,77.912-60.844,133.667c-2.583,29.543-1.12,86.877,7.361,125.369c-34.564,13.679-61.782,30.352-81.38,49.95
			C422.525,553.555,396.328,660.625,385.16,720c-17.151,91.184-22.824,191.545-15.176,268.465
			c1.981,19.93,7.303,39.594,16.269,60.116c12.661,28.977,31.315,55.026,55.445,77.421
			c201.333,186.862,402.677,373.724,604.016,560.581l66.225,61.461c39.566,36.73,82.633,72.648,135.656,73.342
			c0.537,0.007,1.064,0.01,1.6,0.01c56.748-0.004,101.718-39.563,142.924-80.139l400.505-394.382
			c21.27-20.956,50.399-49.656,56.571-87.535c7.925-48.7-22.913-91.307-57.417-130.093
			C1602.036,915.864,1394.303,715.305,1174.348,533.14z M576.413,330.866c4.193-48.072,22.252-88.493,50.846-113.816
			c15.17-13.43,34.647-22.542,54.847-25.659c20.855-3.218,40.32,0.145,56.293,9.718c23.007,13.799,33.384,36.643,38.038,53.377
			c6.361,22.87,6.195,48.473-0.466,72.089c-5.022,17.801-13.116,35.675-24.74,54.642c-7.168,11.69-15.265,23.098-23.793,34.28
			c-12.445,1.304-24.974,2.832-37.506,4.62c-40.558,5.788-76.422,13.617-107.514,23.422
			C575.585,409.389,574.089,357.443,576.413,330.866z M1819.584,1254.519c-4.25,26.084-24.26,47.58-48.013,70.982l-400.502,394.38
			c-36.772,36.209-76.458,71.518-121.935,71.515c-0.38,0-0.767-0.003-1.147-0.008c-42.397-0.554-78.893-31.219-115.64-65.331
			l-66.226-61.463c-201.339-186.857-402.683-373.719-604.016-560.58c-21.091-19.575-37.362-42.267-48.363-67.444
			c-7.692-17.604-12.241-34.31-13.907-51.072c-7.381-74.239-1.847-171.417,14.806-259.952
			c17.915-95.244,46.737-168.417,79.077-200.758c19.54-19.54,47.961-35.151,82.16-47.421c0.143-0.04,0.287-0.067,0.429-0.111
			c0.567-0.178,1.11-0.395,1.639-0.631c35.844-12.634,77.896-21.651,122.681-27.705c-1.41,1.706-2.819,3.408-4.224,5.105
			l-1.73,2.089c-28.794,34.789-55.893,69.51-72.177,108.574c-18.491,0.019-37.125,6.894-52.571,20.077
			c-23.884,20.386-34.085,50.741-26.617,79.235c0.23,0.873,0.477,1.745,0.74,2.617c9.237,31.104,39.657,53.447,73.982,54.338
			c0.741,0.02,1.48,0.03,2.22,0.03c19.791,0,38.764-7.116,52.353-19.705c15.944-14.786,24.854-37.62,23.831-61.086
			c-0.757-17.304-6.934-34.154-17.859-48.729c-0.001,0-0.002-0.001-0.002-0.003c-6.571-8.767-15.386-15.641-26.187-20.452
			c14.777-33.031,38.603-63.396,65.398-95.768l1.727-2.085c7.887-9.524,15.876-19.18,23.69-29.052
			c39.618-3.663,80.449-5.294,120.3-5.294c32.219,0,63.822,1.064,93.591,2.975c67.008,4.301,124.013,52.231,179.142,98.583
			c6.231,5.24,12.676,10.658,18.98,15.878c218.784,181.196,425.413,380.688,614.146,592.937c0,0.001,0.001,0.001,0.002,0.002
			C1819.409,1205.443,1823.076,1233.06,1819.584,1254.519z M654.568,609.455c0.001,0.001,0.002,0.002,0.002,0.003
			c7.289,9.722,11.402,20.804,11.895,32.044c0.634,14.56-4.83,29.036-14.254,37.775c-8.266,7.658-20.73,12.046-33.386,11.688
			c-21.526-0.559-40.453-14.096-46.025-32.919c-0.01-0.034-0.02-0.067-0.03-0.101c-0.16-0.528-0.31-1.056-0.444-1.568
			c-5.403-20.618,5.279-38.725,17.078-48.795c5.965-5.092,13.909-9.571,22.802-11.66c-0.285,1.177-0.573,2.353-0.837,3.539
			c-1.8,8.086,3.296,16.101,11.383,17.9c1.098,0.245,2.193,0.362,3.272,0.362c6.874,0,13.072-4.756,14.628-11.745
			c0.492-2.211,1.042-4.4,1.619-6.579C647.378,601.997,651.509,605.372,654.568,609.455z"/>
		<path d="M986.707,329.996c0.433,0.037,0.861,0.055,1.287,0.055c7.71,0,14.265-5.909,14.93-13.731l11.504-135.38
			c0.701-8.255-5.422-15.515-13.677-16.216c-8.243-0.693-15.515,5.422-16.216,13.676l-11.504,135.38
			C972.33,322.034,978.453,329.294,986.707,329.996z"/>
		<path d="M1153.709,364.203c1.138,0.263,2.273,0.389,3.393,0.389c6.825,0,12.998-4.689,14.602-11.624l30.277-130.916
			c1.867-8.071-3.163-16.127-11.234-17.994c-8.075-1.867-16.128,3.163-17.994,11.234l-30.277,130.916
			C1140.607,354.28,1145.638,362.336,1153.709,364.203z"/>
		<path d="M1311.681,462.688c2.194,1.128,4.538,1.663,6.847,1.663c5.442,0,10.692-2.971,13.353-8.144
			c18.85-36.657,42.563-70.741,70.479-101.305c5.587-6.117,5.158-15.604-0.959-21.191c-6.115-5.586-15.604-5.157-21.191,0.959
			c-29.708,32.524-54.944,68.8-75.009,107.819C1301.412,449.855,1304.313,458.899,1311.681,462.688z"/>
		<path d="M1484.819,616.237c2.753,2.173,6.029,3.227,9.284,3.227c4.433,0,8.823-1.957,11.783-5.707l85.912-108.831
			c5.133-6.502,4.023-15.935-2.479-21.068c-6.502-5.134-15.935-4.024-21.067,2.479l-85.912,108.832
			C1477.207,601.672,1478.316,611.104,1484.819,616.237z"/>
		<path d="M1652.436,793.785c3.221,0,6.467-1.033,9.205-3.166l111.913-87.151c6.536-5.09,7.709-14.515,2.619-21.051
			c-5.09-6.535-14.514-7.709-21.051-2.618l-111.913,87.15c-6.536,5.09-7.709,14.515-2.619,21.051
			C1643.548,791.798,1647.968,793.785,1652.436,793.785z"/>
		<path d="M1805.643,986.375c1.68,0,3.39-0.285,5.063-0.884l145.056-52.016c7.798-2.796,11.853-11.385,9.056-19.183
			c-2.796-7.797-11.381-11.853-19.183-9.056l-145.056,52.016c-7.798,2.796-11.853,11.385-9.056,19.183
			C1793.719,982.56,1799.488,986.375,1805.643,986.375z"/>
		<path d="M2068.778,1214.913l-132.962-12.36c-8.249-0.766-15.558,5.299-16.324,13.547c-0.767,8.249,5.299,15.558,13.547,16.324
			l132.962,12.36c0.473,0.044,0.941,0.065,1.406,0.065c7.657,0,14.195-5.836,14.918-13.612
			C2083.092,1222.988,2077.026,1215.68,2068.778,1214.913z"/>
		<path d="M282.937,944.093c-0.702-8.255-7.976-14.375-16.216-13.676L131.34,941.92c-8.254,0.702-14.377,7.962-13.676,16.216
			c0.665,7.823,7.22,13.731,14.929,13.731c0.426,0,0.855-0.018,1.287-0.055l135.38-11.504
			C277.515,959.607,283.638,952.347,282.937,944.093z"/>
		<path d="M317.144,1111.094c-1.867-8.071-9.924-13.098-17.994-11.234l-130.916,30.277c-8.071,1.866-13.101,9.923-11.234,17.994
			c1.604,6.934,7.776,11.623,14.601,11.623c1.119,0,2.256-0.126,3.393-0.389l130.916-30.277
			C313.98,1127.221,319.01,1119.165,317.144,1111.094z"/>
		<path d="M395.429,1262.585c-39.018,20.064-75.293,45.301-107.818,75.009c-6.117,5.587-6.546,15.074-0.959,21.191
			c2.959,3.239,7.013,4.884,11.08,4.884c3.612,0,7.235-1.297,10.112-3.925c30.564-27.917,64.648-51.63,101.306-70.479
			c7.367-3.789,10.268-12.832,6.479-20.199C411.84,1261.698,402.796,1258.798,395.429,1262.585z"/>
		<path d="M548.11,1439.725l-108.832,85.912c-6.502,5.133-7.612,14.565-2.479,21.067c2.96,3.75,7.35,5.707,11.783,5.707
			c3.254,0,6.532-1.055,9.285-3.228l108.831-85.912c6.503-5.133,7.612-14.565,2.479-21.067S554.611,1434.591,548.11,1439.725z"/>
		<path d="M740.941,1597.975c-6.535-5.091-15.962-3.918-21.051,2.619l-87.151,111.914c-5.09,6.536-3.917,15.961,2.619,21.051
			c2.738,2.133,5.983,3.166,9.205,3.166c4.468,0,8.889-1.987,11.846-5.785l87.151-111.914
			C748.65,1612.489,747.478,1603.064,740.941,1597.975z"/>
		<path d="M929.375,1748.907c-7.797-2.793-16.386,1.259-19.184,9.057l-52.016,145.056c-2.796,7.799,1.259,16.387,9.057,19.183
			c1.673,0.601,3.382,0.885,5.063,0.885c6.154,0,11.924-3.815,14.121-9.94l52.016-145.056
			C941.228,1760.292,937.173,1751.704,929.375,1748.907z"/>
		<path d="M1185.364,1890.425c-0.767-8.249-8.085-14.315-16.324-13.547c-8.248,0.767-14.313,8.075-13.547,16.324l12.36,132.961
			c0.723,7.776,7.26,13.612,14.918,13.612c0.465,0,0.935-0.021,1.406-0.065c8.248-0.767,14.313-8.075,13.547-16.324
			L1185.364,1890.425z"/>
		<path d="M904.277,976.523c8.832-28.254,0.711-61.895-22.281-92.294c-10.231-13.527-18.383-21.571-26.267-29.35
			c-5.919-5.84-12.039-11.879-19.581-20.727c-24.482-28.72-27.51-51.172-25.737-64.949c3.329-25.893,29.234-48.686,58.974-51.889
			c27.538-2.969,58.145,8.44,83.977,31.3c25.482,22.55,43.92,53.013,59.202,79.795c4.105,7.196,13.268,9.701,20.462,5.595
			c7.195-4.105,9.7-13.267,5.595-20.462c-16.472-28.869-36.466-61.81-65.378-87.395c-32.137-28.438-71.157-42.527-107.07-38.66
			c-43.646,4.702-80.41,38.187-85.517,77.89c-4.609,35.852,15.218,67.772,32.663,88.237c8.38,9.832,15.266,16.626,21.34,22.62
			c7.775,7.671,14.49,14.297,23.41,26.092c24.249,32.062,20.369,56.31,17.575,65.248c-7.856,25.138-37.831,45.029-65.436,43.449
			c-34.433-1.978-66.315-28.834-84.671-53.309c-38.645-51.526-38.753-85.556-38.749-85.894l-0.005,0.18l-29.982-1.033
			c-0.042,1.223-0.249,12.484,5.369,30.969c7.218,23.75,20.463,48.572,39.367,73.778c22.399,29.865,62.258,62.692,106.95,65.259
			c1.581,0.091,3.168,0.136,4.761,0.136c18.18,0,37.009-5.879,53.52-16.791C885.112,1012.196,898.434,995.222,904.277,976.523z"/>
		<path d="M1110.141,1122.016l34.597-43.486c15.656-19.679,33.401-41.983,42.06-68.967c10.277-32.027,4.08-65.851-15.787-86.172
			c-20.836-21.309-55.833-27.701-89.163-16.285c-27.879,9.549-50.428,28.759-70.322,45.707l-38.665,32.937
			c-0.015,0.012-0.029,0.025-0.043,0.037L842.71,1096.619c-6.307,5.372-7.064,14.839-1.692,21.145
			c5.373,6.307,14.84,7.062,21.146,1.692l119.414-101.723c32.252,32.026,64.503,64.052,96.752,96.081l-96.273,121.007
			c-5.157,6.482-4.083,15.919,2.399,21.077c2.761,2.196,6.056,3.263,9.329,3.263c4.414-0.001,8.787-1.939,11.748-5.662
			l104.54-131.397C1110.096,1122.073,1110.118,1122.045,1110.141,1122.016z M1004.494,998.211l26.485-22.561
			c18.733-15.959,38.104-32.461,60.589-40.163c25.518-8.741,47.513-1.839,57.991,8.877c9.258,9.468,17.083,29.824,8.674,56.033
			c-6.984,21.763-22.229,40.924-36.972,59.455l-24.141,30.344C1066.247,1059.533,1035.371,1028.871,1004.494,998.211z"/>
		<path d="M1159.804,1384.664l-95.905-86.537c-3.553-3.205-4.917-4.882-5.391-5.757c0.777-1.715,3.788-4.983,4.832-6.116
			c72.337-78.512,150.765-152.735,233.104-220.608c6.393-5.27,7.303-14.723,2.033-21.116c-5.268-6.393-14.722-7.303-21.115-2.034
			c-83.393,68.742-162.822,143.914-236.084,223.429c-4.361,4.733-12.479,13.544-12.868,25.603
			c-0.47,14.56,10.243,24.226,15.392,28.872l95.905,86.537c2.869,2.589,6.462,3.863,10.044,3.863c4.098,0,8.181-1.67,11.142-4.951
			C1166.441,1399.699,1165.954,1390.214,1159.804,1384.664z"/>
		<path d="M1469.928,1216.272c-12.463-12.891-32.989-13.979-46.731-2.475c-37.792,31.639-74.755,64.635-110.676,98.74
			c-0.36,0.308-0.706,0.638-1.042,0.986c-38.096,36.214-75.013,73.679-110.456,112.147c-4.361,4.733-12.479,13.544-12.868,25.603
			c-0.47,14.56,10.243,24.227,15.392,28.872l95.905,86.537c2.869,2.588,6.462,3.863,10.044,3.863c4.098,0,8.18-1.67,11.142-4.951
			c5.55-6.15,5.063-15.636-1.088-21.186l-95.905-86.537c-3.553-3.206-4.917-4.882-5.391-5.757c0.777-1.715,3.788-4.983,4.832-6.116
			c31.984-34.715,65.191-68.596,99.384-101.47c37.841,35.283,77.787,76.723,78.223,77.175c2.944,3.059,6.873,4.597,10.808,4.597
			c3.743,0,7.491-1.393,10.401-4.194c5.968-5.745,6.148-15.241,0.403-21.209c-0.437-0.453-39.968-41.465-78.048-77.07
			c31.974-29.968,64.76-59.032,98.198-87.027c1.73-1.451,4.326-1.31,5.907,0.325c22.811,23.591,65.868,68.467,97.947,103.958
			c5.555,6.146,15.04,6.624,21.187,1.069c6.146-5.555,6.624-15.04,1.069-21.187
			C1536.191,1285.151,1492.87,1239.999,1469.928,1216.272z"/>
	</g>
</g>
</svg>
